<svg width="34" height="35" viewBox="0 0 34 35" fill="none" xmlns="http://www.w3.org/2000/svg">
<rect y="0.210938" width="34" height="34" rx="17" fill="#C6A687"/>
<g clip-path="url(#clip0_702_46)">
<path d="M15.2148 16.3228C15.4546 16.3228 15.649 16.1283 15.649 15.8885V13.9052C15.649 13.1384 15.9424 12.4063 16.4596 11.869C16.9762 11.3322 17.6733 11.0339 18.3966 11.0339H19.8714V12.8098H18.3966C18.1072 12.8098 17.8331 12.9294 17.6337 13.1365C17.4349 13.3431 17.3259 13.6199 17.3259 13.9052V15.8885C17.3259 16.1283 17.5204 16.3228 17.7602 16.3228H19.7545L19.3271 18.0987H17.7602C17.5204 18.0987 17.3259 18.2931 17.3259 18.5329V23.3875H15.649V18.5329C15.649 18.2931 15.4546 18.0987 15.2148 18.0987H13.7399V16.3228H15.2148Z" fill="#1E1E21" stroke="#1E1E21" stroke-width="0.868571" stroke-linecap="round" stroke-linejoin="round"/>
</g>
<defs>
<clipPath id="clip0_702_46">
<rect width="14" height="14" fill="white" transform="translate(10 10.2109)"/>
</clipPath>
</defs>
</svg>
