<svg width="21" height="20" viewBox="0 0 21 20" fill="none" xmlns="http://www.w3.org/2000/svg">
<g clip-path="url(#clip0_351_1500)">
<path d="M19.6663 8.49889C19.6663 7.68635 19.1797 6.94096 18.4184 6.50502C18.5413 6.23101 18.6046 5.9399 18.6048 5.64623C18.6048 4.44506 17.5693 3.44791 16.2246 3.27854C15.8735 2.29557 14.8026 1.58467 13.5606 1.58467C13.4172 1.5847 13.274 1.59423 13.1323 1.61318C12.7532 0.676777 11.7125 0.000488281 10.4998 0.000488281C9.2871 0.000488281 8.24619 0.676777 7.86707 1.61318C7.72536 1.59422 7.58216 1.58469 7.43874 1.58467C6.1969 1.58467 5.12584 2.29557 4.77477 3.27854C3.43006 3.44791 2.39452 4.44506 2.39452 5.64623C2.39452 5.94076 2.45883 6.23232 2.58103 6.50502C1.81965 6.94096 1.33301 7.68635 1.33301 8.49889C1.33301 9.01186 1.52257 9.48732 1.84393 9.87736C1.84521 9.90404 1.84803 9.93088 1.85371 9.95744L3.88718 19.5174C3.91605 19.653 3.99937 19.7756 4.12262 19.8638C4.24588 19.9521 4.40127 20.0005 4.56174 20.0005H16.4376C16.5981 20.0005 16.7535 19.9521 16.8767 19.8638C17 19.7756 17.0833 19.653 17.1122 19.5174L19.1456 9.95744C19.1513 9.93088 19.1542 9.90404 19.1554 9.87736C19.4768 9.48732 19.6663 9.01186 19.6663 8.49885V8.49889ZM13.6932 18.8225L14.4299 10.4406H17.6487L15.8658 18.8225H13.6932ZM8.6818 18.8225L7.94489 10.4406H13.0545L12.3177 18.8225H8.6818ZM5.13361 18.8225L3.35065 10.4406H6.56947L7.30639 18.8225H5.13361ZM2.70451 8.49889C2.70451 7.96115 3.12429 7.48127 3.72536 7.33205C3.83347 7.30516 3.93222 7.25583 4.01289 7.18841C4.09355 7.12099 4.15366 7.03756 4.18791 6.94547C4.22216 6.85338 4.22949 6.75547 4.20926 6.66037C4.18903 6.56528 4.14187 6.47592 4.07192 6.40018C3.8719 6.1835 3.7662 5.92271 3.7662 5.64627C3.7662 4.97623 4.40079 4.43119 5.18073 4.43119C5.2127 4.43119 5.24804 4.43256 5.29175 4.43549C5.47367 4.44768 5.654 4.3967 5.79221 4.29432C5.93043 4.19193 6.01552 4.04635 6.02848 3.88979C6.08074 3.25775 6.70005 2.76264 7.43874 2.76264C7.66632 2.76264 7.88399 2.80795 8.0856 2.89721C8.18959 2.94327 8.30557 2.96573 8.42251 2.96243C8.53945 2.95913 8.65346 2.93019 8.75371 2.87837C8.85395 2.82654 8.93709 2.75355 8.99522 2.66634C9.05335 2.57912 9.08453 2.48058 9.08581 2.3801C9.09399 1.71756 9.7284 1.17846 10.4998 1.17846C11.2711 1.17846 11.9056 1.71756 11.9138 2.3801C11.915 2.48058 11.9462 2.57912 12.0044 2.66634C12.0625 2.75355 12.1456 2.82654 12.2459 2.87837C12.3461 2.93019 12.4601 2.95913 12.5771 2.96243C12.694 2.96573 12.81 2.94327 12.914 2.89721C13.1156 2.80779 13.3332 2.76264 13.5608 2.76264C14.2993 2.76264 14.9188 3.25779 14.971 3.88979C14.9774 3.96727 15.0016 4.0429 15.0421 4.11233C15.0827 4.18176 15.1388 4.24361 15.2073 4.29432C15.2758 4.34503 15.3552 4.3836 15.4411 4.40783C15.527 4.43205 15.6176 4.44144 15.7078 4.43545C15.7508 4.43256 15.7871 4.43115 15.8188 4.43115C16.5987 4.43115 17.2333 4.97623 17.2333 5.64623C17.2333 5.92272 17.1276 6.1835 16.9274 6.40018C16.8575 6.47594 16.8104 6.56531 16.7901 6.66041C16.7699 6.75551 16.7772 6.85342 16.8114 6.94553C16.8457 7.03761 16.9059 7.12103 16.9866 7.18843C17.0673 7.25584 17.1661 7.30516 17.2742 7.33205C17.8752 7.48127 18.2948 7.96115 18.2948 8.49885C18.2952 8.77702 18.1837 9.04677 17.9793 9.26256H3.02005C2.82303 9.05385 2.70451 8.78803 2.70451 8.49889Z" fill="#C6A687"/>
<path d="M12.8078 5.97997C13.3856 5.97997 13.8557 6.38356 13.8557 6.87978C13.8557 7.20509 14.1627 7.46876 14.5414 7.46876C14.92 7.46876 15.2272 7.20509 15.2272 6.87978C15.2272 5.73415 14.1419 4.802 12.8078 4.802C12.4291 4.802 12.1221 5.06567 12.1221 5.39099C12.1221 5.71614 12.4291 5.97997 12.8078 5.97997ZM6.24803 5.46286C5.88919 5.46286 5.54554 5.73368 5.5621 6.05185C5.57879 6.37091 5.86359 6.64083 6.24803 6.64083C6.60669 6.64083 6.95029 6.36985 6.93378 6.05185C6.91709 5.73263 6.63248 5.46286 6.24803 5.46286ZM7.94236 8.41392C8.30101 8.41392 8.6448 8.1429 8.62811 7.82493C8.6116 7.50571 8.3268 7.23595 7.94236 7.23595C7.58365 7.23595 7.24005 7.50677 7.2566 7.82493C7.27329 8.14399 7.55791 8.41392 7.94236 8.41392Z" fill="#C6A687"/>
</g>
<defs>
<clipPath id="clip0_351_1500">
<rect width="20" height="20" fill="white" transform="translate(0.5 0.000488281)"/>
</clipPath>
</defs>
</svg>
