<svg width="20" height="20" viewBox="0 0 20 20" fill="none" xmlns="http://www.w3.org/2000/svg">
<g clip-path="url(#clip0_351_1490)">
<path d="M16.1867 0.000488281H3.81333C2.80252 0.00225083 1.8336 0.404577 1.11885 1.11933C0.404089 1.83409 0.00176255 2.803 0 3.81382V16.1872C0.00176255 17.198 0.404089 18.1669 1.11885 18.8816C1.8336 19.5964 2.80252 19.9987 3.81333 20.0005H16.1867C17.1975 19.9987 18.1664 19.5964 18.8812 18.8816C19.5959 18.1669 19.9982 17.198 20 16.1872V3.81382C19.9982 2.803 19.5959 1.83409 18.8812 1.11933C18.1664 0.404577 17.1975 0.00225083 16.1867 0.000488281ZM18.6667 16.1872C18.6649 16.8444 18.4031 17.4741 17.9383 17.9388C17.4736 18.4035 16.8439 18.6654 16.1867 18.6672H3.81333C3.15614 18.6654 2.52636 18.4035 2.06165 17.9388C1.59694 17.4741 1.33509 16.8444 1.33333 16.1872V3.81382C1.33509 3.15663 1.59694 2.52685 2.06165 2.06214C2.52636 1.59743 3.15614 1.33558 3.81333 1.33382H16.1867C16.8439 1.33558 17.4736 1.59743 17.9383 2.06214C18.4031 2.52685 18.6649 3.15663 18.6667 3.81382V16.1872Z" fill="#C6A687"/>
<path d="M15.9997 11.2271C15.8229 11.2271 15.6533 11.2973 15.5283 11.4223C15.4032 11.5474 15.333 11.7169 15.333 11.8937V14.3937L5.60634 4.66707H8.10634C8.28315 4.66707 8.45272 4.59684 8.57774 4.47181C8.70277 4.34679 8.77301 4.17722 8.77301 4.00041C8.77301 3.8236 8.70277 3.65403 8.57774 3.529C8.45272 3.40398 8.28315 3.33374 8.10634 3.33374H3.79301C3.67101 3.33374 3.55401 3.3822 3.46774 3.46847C3.38147 3.55474 3.33301 3.67174 3.33301 3.79374V8.10707C3.33301 8.28388 3.40325 8.45345 3.52827 8.57848C3.65329 8.7035 3.82286 8.77374 3.99967 8.77374C4.17649 8.77374 4.34605 8.7035 4.47108 8.57848C4.5961 8.45345 4.66634 8.28388 4.66634 8.10707V5.60707L14.393 15.3337H11.893C11.7162 15.3337 11.5466 15.404 11.4216 15.529C11.2966 15.654 11.2263 15.8236 11.2263 16.0004C11.2263 16.1772 11.2966 16.3468 11.4216 16.4718C11.5466 16.5968 11.7162 16.6671 11.893 16.6671H16.2063C16.3283 16.6671 16.4453 16.6186 16.5316 16.5323C16.6179 16.4461 16.6663 16.3291 16.6663 16.2071V11.8937C16.6663 11.7169 16.5961 11.5474 16.4711 11.4223C16.3461 11.2973 16.1765 11.2271 15.9997 11.2271Z" fill="#C6A687"/>
</g>
<defs>
<clipPath id="clip0_351_1490">
<rect width="20" height="20" fill="white" transform="translate(0 0.000488281)"/>
</clipPath>
</defs>
</svg>
