<svg width="20" height="20" viewBox="0 0 20 20" fill="none" xmlns="http://www.w3.org/2000/svg">
<g clip-path="url(#clip0_351_1512)">
<path d="M12.3347 0.406773L12.3347 0.406777L14.9686 7.12988L12.3347 0.406773ZM12.3347 0.406773L12.3341 0.405431M12.3347 0.406773L12.3341 0.405431M12.3341 0.405431C12.1672 -0.00317348 11.7044 -0.203493 11.2922 -0.0456279L11.2915 -0.0453511M12.3341 0.405431L11.2915 -0.0453511M11.2915 -0.0453511L4.56808 2.58865L4.56776 2.58878M11.2915 -0.0453511L4.56776 2.58878M4.56776 2.58878C4.15494 2.75216 3.95277 3.21926 4.11604 3.63207L4.56776 2.58878ZM6.76985 10.3556L6.76982 10.3555L4.11608 3.63214L6.76985 10.3556ZM6.76985 10.3556C6.93322 10.7683 7.40023 10.9705 7.813 10.8073L6.76985 10.3556ZM14.5169 8.17325L14.5166 8.17334L7.81322 10.8073L14.5169 8.17325ZM14.5169 8.17325C14.9296 8.00989 15.1318 7.54294 14.9687 7.1302L14.5169 8.17325ZM19.0443 11.251L19.0443 11.251L16.7758 19.7807L16.8016 19.6841L16.7759 19.7807L16.7759 19.7807C17.2044 19.8954 17.6446 19.6414 17.76 19.2132L17.76 19.2133L17.7603 19.212L17.7605 19.2112L19.5954 12.2357C19.5954 12.2355 19.5954 12.2354 19.5955 12.2352C19.7113 11.8117 19.466 11.3736 19.0443 11.251ZM9.81471 17.9297L9.83522 17.853L9.84057 17.8331L9.81303 17.9292L9.81337 17.9293L9.81471 17.9297ZM11.0968 9.98496L9.24599 16.9451L11.1935 10.0103L11.0969 9.98459L11.0968 9.98472C11.0968 9.9848 11.0968 9.98488 11.0968 9.98496ZM5.12572 3.45801L11.4811 0.956587L13.9787 7.31583L7.62331 9.81341L5.12572 3.45801ZM8.38154 11.2866H1.17957C0.735518 11.2866 0.375586 11.6465 0.375586 12.0906V19.2965C0.375586 19.7406 0.735518 20.1005 1.17957 20.1005H8.38154C8.82559 20.1005 9.18552 19.7406 9.18552 19.2965V12.0906C9.18552 11.6465 8.82553 11.2866 8.38154 11.2866ZM8.19453 19.1056H1.36658V12.2776H8.19453V19.1056ZM18.6053 12.1655L16.8533 18.7395L10.2521 17.0065L12.008 10.4095L18.6053 12.1655Z" fill="#C6A687" stroke="#C6A687" stroke-width="0.2"/>
<mask id="path-2-outside-1_351_1512" maskUnits="userSpaceOnUse" x="2.16211" y="2.20605" width="15" height="16" fill="black">
<rect fill="white" x="2.16211" y="2.20605" width="15" height="16"/>
<path d="M11.9054 6.16203C11.8336 6.0254 11.7386 5.90229 11.6246 5.79817L9.64712 3.71391L9.41378 3.4608C9.35514 3.4 9.29017 3.34564 9.21998 3.29864C9.149 3.25034 9.06776 3.2192 8.98269 3.20768C8.88276 3.2007 8.78254 3.21627 8.68944 3.25323C8.59633 3.2902 8.51273 3.34762 8.44481 3.42125C8.39044 3.48798 8.35251 3.56655 8.33407 3.65064C8.314 3.74951 8.30471 3.85031 8.30639 3.95121V7.12704C8.3143 7.24569 8.32087 7.33665 8.32616 7.39993C8.32918 7.4594 8.34118 7.51807 8.36176 7.57395C8.38077 7.61983 8.40928 7.66117 8.44541 7.69525C8.48153 7.72933 8.52446 7.75538 8.57137 7.7717C8.66767 7.81125 8.77564 7.81125 8.87195 7.7717C8.92019 7.75798 8.96443 7.73285 9.00091 7.69843C9.0374 7.66401 9.06506 7.62131 9.08156 7.57395C9.11122 7.42163 9.12185 7.26615 9.1132 7.11122V6.54566L10.6754 5.93264L11.0472 6.32814L11.2172 6.4982C11.2657 6.5494 11.3201 6.59455 11.3794 6.63267C11.4239 6.65946 11.474 6.67568 11.5257 6.68013C11.5838 6.68433 11.642 6.67485 11.6958 6.65244C11.7887 6.61427 11.8637 6.54215 11.9054 6.45074C11.9249 6.40511 11.9349 6.356 11.9349 6.30639C11.9349 6.25677 11.9249 6.20767 11.9054 6.16203ZM9.0776 5.87332L9.02223 4.07777L10.2245 5.42245L9.0776 5.87332ZM5.76731 15.385C5.95116 15.3163 6.10921 15.1924 6.2197 15.0302C6.33019 14.868 6.38769 14.6755 6.38428 14.4793C6.38461 14.3633 6.36453 14.2482 6.32496 14.1392C6.28615 14.0311 6.22858 13.9307 6.15489 13.8425C6.08227 13.7548 5.99536 13.6799 5.89782 13.6211C5.77645 13.5485 5.64213 13.5001 5.50233 13.4787C5.33352 13.4529 5.16289 13.441 4.99214 13.4431H3.67909C3.60859 13.4354 3.53725 13.4419 3.46932 13.4623C3.40138 13.4827 3.33823 13.5165 3.2836 13.5617C3.19339 13.6727 3.15074 13.8149 3.16495 13.9572V17.0579C3.15049 17.1996 3.19161 17.3414 3.27964 17.4534C3.33419 17.5003 3.39783 17.5353 3.46657 17.5564C3.5353 17.5775 3.60766 17.5842 3.67909 17.576H4.94072C5.12486 17.5703 5.30846 17.5532 5.49046 17.5246C5.63973 17.5071 5.78602 17.4698 5.92551 17.4139C6.12079 17.3325 6.2874 17.1948 6.40406 17.0184C6.52321 16.832 6.58508 16.6147 6.58203 16.3935C6.59113 15.9042 6.24759 15.479 5.76731 15.385ZM4.00735 14.0798H4.66783C4.89791 14.068 5.12799 14.1029 5.34413 14.1827C5.41714 14.2179 5.47754 14.2748 5.51716 14.3455C5.55677 14.4163 5.57369 14.4975 5.56561 14.5782C5.5665 14.6713 5.54188 14.763 5.49442 14.8432C5.44004 14.9494 5.34641 15.0303 5.23339 15.0686C5.07673 15.1139 4.91385 15.1339 4.75089 15.1279H3.98758L4.00735 14.0798ZM5.73171 16.3381C5.73171 16.7441 5.44958 16.9472 4.88535 16.9472H3.98758L4.00735 15.7449H4.86558C5.09339 15.7305 5.32071 15.7798 5.5221 15.8873C5.59345 15.9375 5.65036 16.0056 5.68714 16.0847C5.72393 16.1638 5.7393 16.2512 5.73171 16.3381ZM16.4101 13.4194C16.3092 13.1698 16.1474 12.9495 15.9394 12.7787C15.71 12.5873 15.4392 12.4519 15.1485 12.3832C14.8912 12.312 14.6225 12.2919 14.3575 12.3238C14.1026 12.3549 13.8572 12.4399 13.6377 12.573C13.4105 12.7129 13.2151 12.8988 13.0642 13.1188C12.8941 13.3692 12.7696 13.6477 12.6964 13.9414C12.645 14.1288 12.6131 14.321 12.6015 14.5149C12.5913 14.6963 12.6032 14.8783 12.6371 15.0567C12.6689 15.2262 12.7221 15.391 12.7953 15.5471C12.8713 15.7074 12.9728 15.8543 13.0958 15.9822C13.2183 16.1076 13.3598 16.2131 13.5151 16.2946C13.6922 16.3868 13.8793 16.4584 14.0727 16.5082C14.3205 16.5794 14.5802 16.5996 14.836 16.5675C15.0516 16.5343 15.2577 16.4562 15.4411 16.3381C15.5927 16.2434 15.7265 16.123 15.8366 15.9822C15.9302 15.8656 15.9989 15.7309 16.0383 15.5867C16.0521 15.5406 16.056 15.4922 16.0499 15.4445C16.0437 15.3968 16.0277 15.3509 16.0027 15.3098C15.979 15.2686 15.9471 15.2326 15.909 15.2041C15.8709 15.1755 15.8275 15.155 15.7812 15.1437C15.7362 15.1275 15.688 15.1223 15.6405 15.1285C15.593 15.1347 15.5477 15.1521 15.5084 15.1793C15.432 15.2419 15.3665 15.3168 15.3146 15.4008C15.1918 15.5795 15.0182 15.7173 14.8162 15.7963C14.6106 15.8633 14.3891 15.8633 14.1834 15.7963C13.9966 15.76 13.8231 15.6739 13.6812 15.5471C13.5439 15.391 13.4583 15.1962 13.436 14.9895C13.4095 14.7234 13.435 14.4548 13.5111 14.1985C13.5817 13.8014 13.7853 13.4401 14.0885 13.1742C14.2134 13.077 14.3597 13.0112 14.5152 12.9823C14.6707 12.9534 14.8309 12.9622 14.9823 13.0081C15.1698 13.0511 15.3395 13.1504 15.4688 13.2928C15.5954 13.4505 15.6822 13.6364 15.7219 13.8346C15.7421 13.9397 15.7781 14.041 15.8287 14.1352C15.8797 14.2061 15.9563 14.2543 16.0423 14.2697C16.087 14.282 16.1338 14.2845 16.1795 14.277C16.2253 14.2695 16.2689 14.2522 16.3073 14.2262C16.3876 14.1776 16.4458 14.0995 16.4694 14.0087C16.5111 13.8108 16.4904 13.6049 16.4101 13.4194Z"/>
</mask>
<path d="M11.9054 6.16203C11.8336 6.0254 11.7386 5.90229 11.6246 5.79817L9.64712 3.71391L9.41378 3.4608C9.35514 3.4 9.29017 3.34564 9.21998 3.29864C9.149 3.25034 9.06776 3.2192 8.98269 3.20768C8.88276 3.2007 8.78254 3.21627 8.68944 3.25323C8.59633 3.2902 8.51273 3.34762 8.44481 3.42125C8.39044 3.48798 8.35251 3.56655 8.33407 3.65064C8.314 3.74951 8.30471 3.85031 8.30639 3.95121V7.12704C8.3143 7.24569 8.32087 7.33665 8.32616 7.39993C8.32918 7.4594 8.34118 7.51807 8.36176 7.57395C8.38077 7.61983 8.40928 7.66117 8.44541 7.69525C8.48153 7.72933 8.52446 7.75538 8.57137 7.7717C8.66767 7.81125 8.77564 7.81125 8.87195 7.7717C8.92019 7.75798 8.96443 7.73285 9.00091 7.69843C9.0374 7.66401 9.06506 7.62131 9.08156 7.57395C9.11122 7.42163 9.12185 7.26615 9.1132 7.11122V6.54566L10.6754 5.93264L11.0472 6.32814L11.2172 6.4982C11.2657 6.5494 11.3201 6.59455 11.3794 6.63267C11.4239 6.65946 11.474 6.67568 11.5257 6.68013C11.5838 6.68433 11.642 6.67485 11.6958 6.65244C11.7887 6.61427 11.8637 6.54215 11.9054 6.45074C11.9249 6.40511 11.9349 6.356 11.9349 6.30639C11.9349 6.25677 11.9249 6.20767 11.9054 6.16203ZM9.0776 5.87332L9.02223 4.07777L10.2245 5.42245L9.0776 5.87332ZM5.76731 15.385C5.95116 15.3163 6.10921 15.1924 6.2197 15.0302C6.33019 14.868 6.38769 14.6755 6.38428 14.4793C6.38461 14.3633 6.36453 14.2482 6.32496 14.1392C6.28615 14.0311 6.22858 13.9307 6.15489 13.8425C6.08227 13.7548 5.99536 13.6799 5.89782 13.6211C5.77645 13.5485 5.64213 13.5001 5.50233 13.4787C5.33352 13.4529 5.16289 13.441 4.99214 13.4431H3.67909C3.60859 13.4354 3.53725 13.4419 3.46932 13.4623C3.40138 13.4827 3.33823 13.5165 3.2836 13.5617C3.19339 13.6727 3.15074 13.8149 3.16495 13.9572V17.0579C3.15049 17.1996 3.19161 17.3414 3.27964 17.4534C3.33419 17.5003 3.39783 17.5353 3.46657 17.5564C3.5353 17.5775 3.60766 17.5842 3.67909 17.576H4.94072C5.12486 17.5703 5.30846 17.5532 5.49046 17.5246C5.63973 17.5071 5.78602 17.4698 5.92551 17.4139C6.12079 17.3325 6.2874 17.1948 6.40406 17.0184C6.52321 16.832 6.58508 16.6147 6.58203 16.3935C6.59113 15.9042 6.24759 15.479 5.76731 15.385ZM4.00735 14.0798H4.66783C4.89791 14.068 5.12799 14.1029 5.34413 14.1827C5.41714 14.2179 5.47754 14.2748 5.51716 14.3455C5.55677 14.4163 5.57369 14.4975 5.56561 14.5782C5.5665 14.6713 5.54188 14.763 5.49442 14.8432C5.44004 14.9494 5.34641 15.0303 5.23339 15.0686C5.07673 15.1139 4.91385 15.1339 4.75089 15.1279H3.98758L4.00735 14.0798ZM5.73171 16.3381C5.73171 16.7441 5.44958 16.9472 4.88535 16.9472H3.98758L4.00735 15.7449H4.86558C5.09339 15.7305 5.32071 15.7798 5.5221 15.8873C5.59345 15.9375 5.65036 16.0056 5.68714 16.0847C5.72393 16.1638 5.7393 16.2512 5.73171 16.3381ZM16.4101 13.4194C16.3092 13.1698 16.1474 12.9495 15.9394 12.7787C15.71 12.5873 15.4392 12.4519 15.1485 12.3832C14.8912 12.312 14.6225 12.2919 14.3575 12.3238C14.1026 12.3549 13.8572 12.4399 13.6377 12.573C13.4105 12.7129 13.2151 12.8988 13.0642 13.1188C12.8941 13.3692 12.7696 13.6477 12.6964 13.9414C12.645 14.1288 12.6131 14.321 12.6015 14.5149C12.5913 14.6963 12.6032 14.8783 12.6371 15.0567C12.6689 15.2262 12.7221 15.391 12.7953 15.5471C12.8713 15.7074 12.9728 15.8543 13.0958 15.9822C13.2183 16.1076 13.3598 16.2131 13.5151 16.2946C13.6922 16.3868 13.8793 16.4584 14.0727 16.5082C14.3205 16.5794 14.5802 16.5996 14.836 16.5675C15.0516 16.5343 15.2577 16.4562 15.4411 16.3381C15.5927 16.2434 15.7265 16.123 15.8366 15.9822C15.9302 15.8656 15.9989 15.7309 16.0383 15.5867C16.0521 15.5406 16.056 15.4922 16.0499 15.4445C16.0437 15.3968 16.0277 15.3509 16.0027 15.3098C15.979 15.2686 15.9471 15.2326 15.909 15.2041C15.8709 15.1755 15.8275 15.155 15.7812 15.1437C15.7362 15.1275 15.688 15.1223 15.6405 15.1285C15.593 15.1347 15.5477 15.1521 15.5084 15.1793C15.432 15.2419 15.3665 15.3168 15.3146 15.4008C15.1918 15.5795 15.0182 15.7173 14.8162 15.7963C14.6106 15.8633 14.3891 15.8633 14.1834 15.7963C13.9966 15.76 13.8231 15.6739 13.6812 15.5471C13.5439 15.391 13.4583 15.1962 13.436 14.9895C13.4095 14.7234 13.435 14.4548 13.5111 14.1985C13.5817 13.8014 13.7853 13.4401 14.0885 13.1742C14.2134 13.077 14.3597 13.0112 14.5152 12.9823C14.6707 12.9534 14.8309 12.9622 14.9823 13.0081C15.1698 13.0511 15.3395 13.1504 15.4688 13.2928C15.5954 13.4505 15.6822 13.6364 15.7219 13.8346C15.7421 13.9397 15.7781 14.041 15.8287 14.1352C15.8797 14.2061 15.9563 14.2543 16.0423 14.2697C16.087 14.282 16.1338 14.2845 16.1795 14.277C16.2253 14.2695 16.2689 14.2522 16.3073 14.2262C16.3876 14.1776 16.4458 14.0995 16.4694 14.0087C16.5111 13.8108 16.4904 13.6049 16.4101 13.4194Z" fill="#C6A687"/>
<path d="M11.9054 6.16203C11.8336 6.0254 11.7386 5.90229 11.6246 5.79817L9.64712 3.71391L9.41378 3.4608C9.35514 3.4 9.29017 3.34564 9.21998 3.29864C9.149 3.25034 9.06776 3.2192 8.98269 3.20768C8.88276 3.2007 8.78254 3.21627 8.68944 3.25323C8.59633 3.2902 8.51273 3.34762 8.44481 3.42125C8.39044 3.48798 8.35251 3.56655 8.33407 3.65064C8.314 3.74951 8.30471 3.85031 8.30639 3.95121V7.12704C8.3143 7.24569 8.32087 7.33665 8.32616 7.39993C8.32918 7.4594 8.34118 7.51807 8.36176 7.57395C8.38077 7.61983 8.40928 7.66117 8.44541 7.69525C8.48153 7.72933 8.52446 7.75538 8.57137 7.7717C8.66767 7.81125 8.77564 7.81125 8.87195 7.7717C8.92019 7.75798 8.96443 7.73285 9.00091 7.69843C9.0374 7.66401 9.06506 7.62131 9.08156 7.57395C9.11122 7.42163 9.12185 7.26615 9.1132 7.11122V6.54566L10.6754 5.93264L11.0472 6.32814L11.2172 6.4982C11.2657 6.5494 11.3201 6.59455 11.3794 6.63267C11.4239 6.65946 11.474 6.67568 11.5257 6.68013C11.5838 6.68433 11.642 6.67485 11.6958 6.65244C11.7887 6.61427 11.8637 6.54215 11.9054 6.45074C11.9249 6.40511 11.9349 6.356 11.9349 6.30639C11.9349 6.25677 11.9249 6.20767 11.9054 6.16203ZM9.0776 5.87332L9.02223 4.07777L10.2245 5.42245L9.0776 5.87332ZM5.76731 15.385C5.95116 15.3163 6.10921 15.1924 6.2197 15.0302C6.33019 14.868 6.38769 14.6755 6.38428 14.4793C6.38461 14.3633 6.36453 14.2482 6.32496 14.1392C6.28615 14.0311 6.22858 13.9307 6.15489 13.8425C6.08227 13.7548 5.99536 13.6799 5.89782 13.6211C5.77645 13.5485 5.64213 13.5001 5.50233 13.4787C5.33352 13.4529 5.16289 13.441 4.99214 13.4431H3.67909C3.60859 13.4354 3.53725 13.4419 3.46932 13.4623C3.40138 13.4827 3.33823 13.5165 3.2836 13.5617C3.19339 13.6727 3.15074 13.8149 3.16495 13.9572V17.0579C3.15049 17.1996 3.19161 17.3414 3.27964 17.4534C3.33419 17.5003 3.39783 17.5353 3.46657 17.5564C3.5353 17.5775 3.60766 17.5842 3.67909 17.576H4.94072C5.12486 17.5703 5.30846 17.5532 5.49046 17.5246C5.63973 17.5071 5.78602 17.4698 5.92551 17.4139C6.12079 17.3325 6.2874 17.1948 6.40406 17.0184C6.52321 16.832 6.58508 16.6147 6.58203 16.3935C6.59113 15.9042 6.24759 15.479 5.76731 15.385ZM4.00735 14.0798H4.66783C4.89791 14.068 5.12799 14.1029 5.34413 14.1827C5.41714 14.2179 5.47754 14.2748 5.51716 14.3455C5.55677 14.4163 5.57369 14.4975 5.56561 14.5782C5.5665 14.6713 5.54188 14.763 5.49442 14.8432C5.44004 14.9494 5.34641 15.0303 5.23339 15.0686C5.07673 15.1139 4.91385 15.1339 4.75089 15.1279H3.98758L4.00735 14.0798ZM5.73171 16.3381C5.73171 16.7441 5.44958 16.9472 4.88535 16.9472H3.98758L4.00735 15.7449H4.86558C5.09339 15.7305 5.32071 15.7798 5.5221 15.8873C5.59345 15.9375 5.65036 16.0056 5.68714 16.0847C5.72393 16.1638 5.7393 16.2512 5.73171 16.3381ZM16.4101 13.4194C16.3092 13.1698 16.1474 12.9495 15.9394 12.7787C15.71 12.5873 15.4392 12.4519 15.1485 12.3832C14.8912 12.312 14.6225 12.2919 14.3575 12.3238C14.1026 12.3549 13.8572 12.4399 13.6377 12.573C13.4105 12.7129 13.2151 12.8988 13.0642 13.1188C12.8941 13.3692 12.7696 13.6477 12.6964 13.9414C12.645 14.1288 12.6131 14.321 12.6015 14.5149C12.5913 14.6963 12.6032 14.8783 12.6371 15.0567C12.6689 15.2262 12.7221 15.391 12.7953 15.5471C12.8713 15.7074 12.9728 15.8543 13.0958 15.9822C13.2183 16.1076 13.3598 16.2131 13.5151 16.2946C13.6922 16.3868 13.8793 16.4584 14.0727 16.5082C14.3205 16.5794 14.5802 16.5996 14.836 16.5675C15.0516 16.5343 15.2577 16.4562 15.4411 16.3381C15.5927 16.2434 15.7265 16.123 15.8366 15.9822C15.9302 15.8656 15.9989 15.7309 16.0383 15.5867C16.0521 15.5406 16.056 15.4922 16.0499 15.4445C16.0437 15.3968 16.0277 15.3509 16.0027 15.3098C15.979 15.2686 15.9471 15.2326 15.909 15.2041C15.8709 15.1755 15.8275 15.155 15.7812 15.1437C15.7362 15.1275 15.688 15.1223 15.6405 15.1285C15.593 15.1347 15.5477 15.1521 15.5084 15.1793C15.432 15.2419 15.3665 15.3168 15.3146 15.4008C15.1918 15.5795 15.0182 15.7173 14.8162 15.7963C14.6106 15.8633 14.3891 15.8633 14.1834 15.7963C13.9966 15.76 13.8231 15.6739 13.6812 15.5471C13.5439 15.391 13.4583 15.1962 13.436 14.9895C13.4095 14.7234 13.435 14.4548 13.5111 14.1985C13.5817 13.8014 13.7853 13.4401 14.0885 13.1742C14.2134 13.077 14.3597 13.0112 14.5152 12.9823C14.6707 12.9534 14.8309 12.9622 14.9823 13.0081C15.1698 13.0511 15.3395 13.1504 15.4688 13.2928C15.5954 13.4505 15.6822 13.6364 15.7219 13.8346C15.7421 13.9397 15.7781 14.041 15.8287 14.1352C15.8797 14.2061 15.9563 14.2543 16.0423 14.2697C16.087 14.282 16.1338 14.2845 16.1795 14.277C16.2253 14.2695 16.2689 14.2522 16.3073 14.2262C16.3876 14.1776 16.4458 14.0995 16.4694 14.0087C16.5111 13.8108 16.4904 13.6049 16.4101 13.4194Z" stroke="#C6A687" stroke-width="0.4" mask="url(#path-2-outside-1_351_1512)"/>
</g>
<defs>
<clipPath id="clip0_351_1512">
<rect width="20" height="20" fill="white" transform="translate(0 0.000488281)"/>
</clipPath>
</defs>
</svg>
