<svg width="21" height="20" viewBox="0 0 21 20" fill="none" xmlns="http://www.w3.org/2000/svg">
<g clip-path="url(#clip0_351_1521)">
<path d="M10.4997 19.7921C5.08301 19.7921 0.708008 15.4171 0.708008 10.0004C0.708008 4.58374 5.08301 0.20874 10.4997 0.20874C15.9163 0.20874 20.2913 4.58374 20.2913 10.0004C20.2913 15.4171 15.9163 19.7921 10.4997 19.7921ZM10.4997 1.83374C5.99967 1.83374 2.33301 5.50041 2.33301 10.0004C2.33301 14.5004 5.99967 18.1671 10.4997 18.1671C14.9997 18.1671 18.6663 14.5004 18.6663 10.0004C18.6663 5.50041 14.9997 1.83374 10.4997 1.83374Z" fill="#C6A687"/>
<path d="M13.541 6.62533C14.0827 7.08366 14.3327 7.79199 14.3327 8.75033C14.3327 9.70866 14.041 10.3753 13.4993 10.8337C12.9577 11.292 12.0827 11.5003 10.9577 11.5003H9.91602V14.0837C9.91602 14.542 9.54102 14.9587 9.04102 14.9587C8.58268 14.9587 8.16602 14.5837 8.16602 14.0837V6.70866C8.16602 6.25033 8.54102 5.91699 8.95768 5.91699H10.8743C12.166 5.91699 13.041 6.16699 13.541 6.62533ZM12.291 9.62533C12.4993 9.37533 12.5827 9.04199 12.5827 8.62533C12.5827 8.20866 12.4577 7.87533 12.166 7.66699C11.916 7.50033 11.4993 7.37533 10.916 7.37533H9.91602V10.0003H11.0827C11.7077 10.0003 12.0827 9.87533 12.291 9.62533Z" fill="#C6A687"/>
</g>
<defs>
<clipPath id="clip0_351_1521">
<rect width="20" height="20" fill="white" transform="translate(0.5 0.000488281)"/>
</clipPath>
</defs>
</svg>
