<svg width="44" height="44" viewBox="0 0 44 44" fill="none" xmlns="http://www.w3.org/2000/svg">
<rect width="44" height="44" rx="22" fill="#C6A687"/>
<g clip-path="url(#clip0_351_1423)">
<path d="M15.9 20V20.1H16C16.5039 20.1 16.9872 20.3002 17.3435 20.6565C17.6998 21.0128 17.9 21.4961 17.9 22V26C17.9 26.5039 17.6998 26.9872 17.3435 27.3435C16.9872 27.6998 16.5039 27.9 16 27.9H15.3335C14.4762 27.899 13.6544 27.558 13.0482 26.9518C12.442 26.3456 12.101 25.5238 12.1 24.6665L12.1 23.3334C12.101 22.5883 12.3588 21.8663 12.8299 21.2891C13.3012 20.7118 13.9569 20.3147 14.6868 20.1646L14.7667 20.1482V20.0667V19.3333C14.7667 17.4149 15.5287 15.5751 16.8853 14.2186C18.2418 12.8621 20.0816 12.1 22 12.1C23.9184 12.1 25.7582 12.8621 27.1147 14.2186C28.4713 15.5751 29.2333 17.4149 29.2333 19.3333V20.0667V20.1482L29.3132 20.1646C30.0431 20.3147 30.6989 20.7118 31.1701 21.2891C31.6413 21.8663 31.8991 22.5883 31.9 23.3335V24.6665C31.8991 25.4117 31.6413 26.1337 31.1701 26.7109C30.6989 27.2882 30.0431 27.6853 29.3132 27.8354L29.2333 27.8518V27.9333V28.6667C29.2333 29.1706 29.0332 29.6539 28.6768 30.0102C28.3205 30.3665 27.8372 30.5667 27.3333 30.5667H24.6667H24.5667V30.6667C24.5667 30.9938 24.4367 31.3075 24.2054 31.5388C23.9741 31.7701 23.6604 31.9 23.3333 31.9H21.3333C21.0062 31.9 20.6925 31.7701 20.4612 31.5388C20.2299 31.3075 20.1 30.9938 20.1 30.6667V29.3333C20.1 29.0062 20.2299 28.6925 20.4612 28.4612C20.6925 28.2299 21.0062 28.1 21.3333 28.1H23.3333C23.6604 28.1 23.9741 28.2299 24.2054 28.4612C24.4367 28.6925 24.5667 29.0062 24.5667 29.3333V29.4333H24.6667H27.3333C27.5367 29.4333 27.7317 29.3526 27.8754 29.2088C28.0192 29.065 28.1 28.87 28.1 28.6667V28V27.9H28C27.4961 27.9 27.0128 27.6998 26.6565 27.3435C26.3002 26.9872 26.1 26.5039 26.1 26V22C26.1 21.4961 26.3002 21.0128 26.6565 20.6565C27.0128 20.3002 27.4961 20.1 28 20.1H28.1V20V19.3333C28.1 17.7155 27.4573 16.164 26.3134 15.02C25.1694 13.876 23.6178 13.2333 22 13.2333C20.3822 13.2333 18.8306 13.876 17.6866 15.02C16.5427 16.164 15.9 17.7155 15.9 19.3333V20ZM21.2333 30.6667V30.7667H21.3333H23.3333H23.4333V30.6667V29.3333V29.2333H23.3333H21.3333H21.2333V29.3333V30.6667ZM30.7667 24.6667V23.3333C30.7667 22.7764 30.5454 22.2422 30.1516 21.8484C29.7578 21.4546 29.2236 21.2333 28.6667 21.2333H28C27.7967 21.2333 27.6017 21.3141 27.4579 21.4579C27.3141 21.6017 27.2333 21.7967 27.2333 22V26C27.2333 26.2033 27.3141 26.3983 27.4579 26.5421C27.6017 26.6859 27.7967 26.7667 28 26.7667H28.6667C29.2236 26.7667 29.7578 26.5454 30.1516 26.1516C30.5454 25.7578 30.7667 25.2236 30.7667 24.6667ZM13.8484 21.8484C13.4546 22.2422 13.2333 22.7764 13.2333 23.3333V24.6667C13.2333 25.2236 13.4546 25.7578 13.8484 26.1516C14.2422 26.5454 14.7764 26.7667 15.3333 26.7667H16C16.2033 26.7667 16.3983 26.6859 16.5421 26.5421C16.6859 26.3983 16.7667 26.2033 16.7667 26V22C16.7667 21.7967 16.6859 21.6017 16.5421 21.4579C16.3983 21.3141 16.2033 21.2333 16 21.2333H15.3333C14.7764 21.2333 14.2422 21.4546 13.8484 21.8484Z" fill="#1E1E21" stroke="#C6A687" stroke-width="0.2"/>
</g>
<defs>
<clipPath id="clip0_351_1423">
<rect width="20" height="20" fill="white" transform="translate(12 12)"/>
</clipPath>
</defs>
</svg>
