<svg width="44" height="44" viewBox="0 0 44 44" fill="none" xmlns="http://www.w3.org/2000/svg">
<rect width="44" height="44" rx="22" fill="#C6A687"/>
<g clip-path="url(#clip0_351_1433)">
<path d="M26.7657 20.719C27.2464 20.3969 27.5911 19.9163 27.743 19.3491C27.9092 18.7292 27.8249 18.0834 27.5058 17.5307C27.1867 16.978 26.6696 16.5822 26.0497 16.416C25.4825 16.2641 24.894 16.3223 24.3746 16.5775L23.0365 14.2598C22.7517 13.7664 22.24 13.4788 21.672 13.4885C21.1024 13.499 20.6032 13.8057 20.3365 14.3091C20.1492 14.6628 19.9733 15.0302 19.7871 15.4192C19.0282 17.0045 18.168 18.8014 16.3083 19.8751L13.9188 21.2547C13.0962 21.7295 12.507 22.4994 12.2597 23.4224C12.0124 24.3454 12.1377 25.3067 12.6126 26.1292C13.2728 27.2727 14.4747 27.9127 15.709 27.9127C16.168 27.9129 16.6226 27.8238 17.0476 27.6506L18.7181 30.544C19.0638 31.1426 19.6928 31.4776 20.3389 31.4776C20.6658 31.4776 20.9869 31.3914 21.2697 31.2277C21.7005 30.979 22.009 30.576 22.1384 30.0931C22.2678 29.6101 22.2021 29.1069 21.9534 28.6761L20.3097 25.829C22.0402 25.0063 23.8568 25.1459 25.4741 25.2709C25.9044 25.3042 26.3109 25.3356 26.7111 25.3502C27.2796 25.3706 27.7957 25.0921 28.0895 24.604C28.3833 24.1159 28.3886 23.53 28.1038 23.0366L26.7656 20.7189L26.7657 20.719ZM25.7969 17.3593C26.1649 17.4579 26.4714 17.6922 26.6601 18.019C27.0243 18.6499 26.8478 19.4468 26.2757 19.8703L24.8647 17.4263C25.1567 17.2994 25.4821 17.2749 25.7969 17.3593H25.7969ZM15.7074 26.9365C14.811 26.9364 13.9379 26.4715 13.4584 25.641C13.1139 25.0444 13.0232 24.3462 13.2031 23.6752C13.3829 23.0041 13.8105 22.4449 14.4071 22.1004L16.374 20.9648L18.9683 25.4527L16.999 26.5897C16.5918 26.8248 16.1469 26.9365 15.7074 26.9365ZM21.1952 29.8404C21.1333 30.0714 20.9863 30.2637 20.7815 30.382C20.3559 30.6277 19.8097 30.4814 19.5639 30.0558L17.9101 27.1913L19.4539 26.3L21.1077 29.1644C21.226 29.3693 21.257 29.6094 21.1951 29.8404H21.1952ZM27.2528 24.1004C27.1418 24.285 26.9627 24.3827 26.7468 24.3744C26.3664 24.3605 25.9696 24.3298 25.5494 24.2973C23.7845 24.161 21.8 24.008 19.8224 24.979L17.2113 20.462C19.0432 19.2336 19.9034 17.438 20.668 15.8409C20.8498 15.4611 21.0215 15.1023 21.1995 14.7662C21.3003 14.5759 21.4745 14.4689 21.6898 14.465L21.702 14.4649C21.9118 14.4649 22.0851 14.5651 22.1908 14.7481L27.2581 23.5251C27.3658 23.7116 27.364 23.916 27.2529 24.1005L27.2528 24.1004ZM25.9844 14.5131L26.9928 12.7666C27.1276 12.533 27.4262 12.453 27.6598 12.5879C27.8933 12.7227 27.9733 13.0213 27.8385 13.2549L26.8301 15.0014C26.7981 15.057 26.7554 15.1057 26.7045 15.1447C26.6537 15.1838 26.5956 15.2124 26.5337 15.229C26.4717 15.2456 26.4071 15.2498 26.3435 15.2414C26.28 15.233 26.2187 15.2122 26.1631 15.1801C25.9296 15.0453 25.8496 14.7467 25.9844 14.5131ZM30.5177 16.3556L28.7289 17.3884C28.6734 17.4205 28.6121 17.4413 28.5485 17.4497C28.4849 17.458 28.4203 17.4538 28.3584 17.4372C28.2965 17.4206 28.2384 17.392 28.1875 17.3529C28.1367 17.3139 28.094 17.2652 28.0619 17.2097C27.9271 16.9761 28.0071 16.6775 28.2406 16.5427L30.0295 15.5099C30.2629 15.375 30.5616 15.4551 30.6965 15.6886C30.8313 15.9221 30.7513 16.2208 30.5177 16.3556ZM31.8634 19.8688C31.8634 20.1384 31.6448 20.357 31.3752 20.357H29.3584C29.0887 20.357 28.8701 20.1385 28.8701 19.8688C28.8701 19.5991 29.0887 19.3805 29.3584 19.3805H31.3752C31.6448 19.3805 31.8634 19.5991 31.8634 19.8688Z" fill="#1E1E21"/>
</g>
<defs>
<clipPath id="clip0_351_1433">
<rect width="20" height="20" fill="white" transform="translate(12 12)"/>
</clipPath>
</defs>
</svg>
