<svg width="44" height="44" viewBox="0 0 44 44" fill="none" xmlns="http://www.w3.org/2000/svg">
<rect width="44" height="44" rx="22" fill="#C6A687"/>
<mask id="mask0_351_1443" style="mask-type:luminance" maskUnits="userSpaceOnUse" x="12" y="12" width="20" height="20">
<path d="M31.25 31.25V12.75H12.75V31.25H31.25Z" fill="white" stroke="white" stroke-width="1.5"/>
</mask>
<g mask="url(#mask0_351_1443)">
<path d="M29.5987 14.396C27.1783 11.9756 23.254 11.9756 20.8336 14.396C18.8561 16.3734 18.4946 19.3544 19.7481 21.6993L12.5859 28.8615V31.4088H15.1333L15.8804 30.6617L15.8695 29.0853L17.4677 29.0744L18.4679 28.0743L18.468 26.6216L19.9355 26.6066L22.2955 24.2466C24.6403 25.5002 27.6213 25.1386 29.5987 23.1612C32.0192 20.7407 32.0192 16.8164 29.5987 14.396Z" stroke="#1E1E21" stroke-miterlimit="10"/>
<path d="M27.7781 18.6492C27.1064 19.3209 26.0173 19.3209 25.3456 18.6492C24.6739 17.9774 24.6739 16.8884 25.3456 16.2167C26.0173 15.5449 27.1064 15.5449 27.7781 16.2167C28.4498 16.8884 28.4498 17.9774 27.7781 18.6492Z" stroke="#1E1E21" stroke-miterlimit="10"/>
</g>
</svg>
