<svg width="34" height="35" viewBox="0 0 34 35" fill="none" xmlns="http://www.w3.org/2000/svg">
<rect y="0.210938" width="34" height="34" rx="17" fill="#C6A687"/>
<g clip-path="url(#clip0_702_43)">
<path fill-rule="evenodd" clip-rule="evenodd" d="M20.5 10.2109H13.5C11.567 10.2109 10 11.7779 10 13.7109V20.7109C10 22.6439 11.567 24.2109 13.5 24.2109H20.5C22.433 24.2109 24 22.6439 24 20.7109V13.7109C24 11.7779 22.433 10.2109 20.5 10.2109ZM17.0238 19.8687C15.5691 19.8687 14.3899 18.6894 14.3899 17.2347C14.3899 15.7801 15.5691 14.6008 17.0238 14.6008C18.4785 14.6008 19.6577 15.7801 19.6577 17.2347C19.6577 18.6894 18.4785 19.8687 17.0238 19.8687ZM20.7954 14.6008C21.5227 14.6008 22.1124 14.0112 22.1124 13.2838C22.1124 12.5565 21.5227 11.9669 20.7954 11.9669C20.0681 11.9669 19.4784 12.5565 19.4784 13.2838C19.4784 14.0112 20.0681 14.6008 20.7954 14.6008Z" fill="#1E1E21"/>
</g>
<defs>
<clipPath id="clip0_702_43">
<rect width="14" height="14" fill="white" transform="translate(10 10.2109)"/>
</clipPath>
</defs>
</svg>
