<svg width="215" height="29" viewBox="0 0 215 29" fill="none" xmlns="http://www.w3.org/2000/svg">
<g id="Logo_Port-FFFinal-ai 1" clip-path="url(#clip0_702_30)">
<g id="Layer 1">
<g id="&#60;Group&#62;">
<g id="&#60;Group&#62;_2">
<path id="&#60;Compound Path&#62;" fill-rule="evenodd" clip-rule="evenodd" d="M2.23156 7.28873C2.23156 5.91708 1.63516 5.49751 0.506836 5.19091V4.86816H11.7256C17.8186 4.86816 20.3009 6.8853 20.3009 9.45111C20.3009 11.9524 17.7702 14.0179 11.7256 14.0179H5.85833V19.3916C5.85833 20.6987 6.42249 21.1021 7.58306 21.4249V21.7153H0.506836V21.4249C1.63516 21.1021 2.23156 20.6987 2.23156 19.3916V7.28873ZM6.95442 6.30436C6.29354 6.30436 5.85833 6.35278 5.85833 7.1435V12.5494H11.7256C15.1267 12.5494 16.11 11.0164 16.11 9.43497C16.11 7.86967 15.0784 6.30436 11.7256 6.30436H6.95442Z" fill="#E5E3DD"/>
<path id="&#60;Path&#62;" d="M54.712 7.28873C54.712 5.91708 54.1318 5.49751 52.9873 5.19091V4.86816H64.4318C70.0089 4.86816 72.7492 6.8853 72.7492 9.45111C72.7492 12.0008 70.283 14.0179 65.415 14.0179L71.8948 19.6498C73.2166 20.7955 74.2321 21.2151 74.8607 21.4249V21.7153H69.4286L59.4349 12.969V12.5656H64.19C67.2042 12.5656 68.6066 11.2585 68.6066 9.43497C68.6066 7.62761 67.2042 6.35277 64.19 6.35277H59.3704C58.7418 6.35277 58.3388 6.38505 58.3388 7.17577V19.3754C58.3388 20.6987 58.903 21.1021 60.0635 21.4249V21.7153H52.9873V21.4249C54.1318 21.1021 54.712 20.6987 54.712 19.3754V7.28873Z" fill="#E5E3DD"/>
<path id="&#60;Path&#62;_2" d="M91.6105 21.4249V21.7153H84.5343V21.4249C85.6304 21.1344 86.3074 20.7471 86.3074 19.5691V6.48188H80.7947C78.7799 6.48188 78.0061 7.54692 77.4903 8.61197H77.2002L77.6676 4.86816H98.4772L98.9447 8.61197H98.6545C98.1387 7.54692 97.365 6.48188 95.3501 6.48188H89.8375V19.5691C89.8375 20.7471 90.5628 21.1344 91.6105 21.4249Z" fill="#E5E3DD"/>
<path id="&#60;Path&#62;_3" d="M117.405 7.62704C117.727 6.15856 116.776 5.86809 115.954 5.57763V5.25488H121.419L127.737 17.0189L134.378 5.25488H139.73V5.57763C138.779 5.86809 137.989 6.30379 138.279 7.56249L140.681 18.5842C141.164 20.8272 141.503 21.2307 142.679 21.5857V21.8761H136.377V21.5857C137.151 21.4727 137.441 21.2145 137.441 20.4722C137.441 20.1172 137.376 19.6277 137.247 19.0037L134.846 8.11116L126.98 22.1021H126.657L119.226 8.28866L116.889 19.0199C116.776 19.4878 116.728 19.8913 116.728 20.1979C116.728 21.1177 117.147 21.4404 117.937 21.5857V21.8761H112.988V21.5857C113.601 21.392 114.31 21.1822 114.826 18.8908L117.405 7.62704Z" fill="#E5E3DD"/>
<path id="&#60;Compound Path&#62;_2" fill-rule="evenodd" clip-rule="evenodd" d="M163.915 17.4384H152.519L151.165 19.6331C151.036 19.8482 150.972 20.0473 150.972 20.2301C150.972 20.9886 151.987 21.3759 152.777 21.6018V21.8923H145.685V21.6018C146.491 21.392 147.844 20.9725 149.44 18.5196L156.936 6.52972L156.871 6.41676C156.517 5.93264 155.501 5.64217 155.05 5.57763V5.25488H160.466L169.267 19.3749C170.218 20.924 171.346 21.3759 172.104 21.5857V21.8761H163.512V21.5857C164.35 21.3759 165.398 20.8756 165.398 20.1172C165.398 19.9074 165.334 19.7138 165.172 19.4878L163.915 17.4384ZM153.647 15.6472H162.835L158.273 8.15957L153.647 15.6472Z" fill="#E5E3DD"/>
<path id="&#60;Path&#62;_4" d="M192.195 21.8761H175.479V21.5857C176.495 21.2952 177.188 20.8918 177.188 19.7622V7.64318C177.188 6.28766 176.608 5.90037 175.479 5.57763V5.25488H182.459V5.57763C181.379 5.88423 180.75 6.33607 180.75 7.64318V19.6653C180.75 20.2947 181.024 20.4561 181.508 20.4561H189.406C190.793 20.4561 192.082 19.5524 192.824 18.1485H193.146L192.195 21.8761Z" fill="#E5E3DD"/>
<path id="&#60;Path&#62;_5" d="M213.22 21.8761H196.505V21.5857C197.52 21.2952 198.214 20.8918 198.214 19.7622V7.64318C198.214 6.28766 197.633 5.90037 196.505 5.57763V5.25488H203.501V5.57763C202.404 5.88423 201.792 6.33607 201.792 7.64318V19.6653C201.792 20.2947 202.05 20.4561 202.533 20.4561H210.448C211.818 20.4561 213.107 19.5524 213.865 18.1485H214.171L213.22 21.8761Z" fill="#E5E3DD"/>
</g>
<path id="&#60;Compound Path&#62;_3" fill-rule="evenodd" clip-rule="evenodd" d="M23.7471 13.5365C23.7471 8.00147 29.6144 4.62882 35.9814 4.46745C36.0243 3.90803 36.0727 3.32171 36.1264 2.7085H36.5133C36.5563 3.32171 36.5993 3.90803 36.6422 4.46745C42.9125 4.51586 48.8765 7.5335 48.8765 13.0685C48.8765 18.6197 42.9609 21.944 36.6422 22.1215C36.5885 22.6701 36.5455 23.2565 36.5133 23.8804H36.1264C36.0834 23.2565 36.0351 22.6701 35.9814 22.1215C29.7272 22.0731 23.7471 18.9102 23.7471 13.5365ZM36.8034 5.95206C37.1258 8.61468 37.6255 10.6802 38.7055 13.1331C37.6739 15.6182 37.1419 17.6192 36.7873 20.6691C41.2684 20.54 44.6856 17.716 44.6856 13.5365C44.6856 9.27631 41.6552 6.22639 36.8034 5.95206ZM27.938 13.0685C27.938 17.3933 30.9522 20.4271 35.8363 20.6691C35.4817 17.6192 34.9497 15.6182 33.9181 13.1331C34.9981 10.6802 35.4978 8.61469 35.8202 5.93592C31.2907 6.04888 27.938 8.90516 27.938 13.0685Z" fill="#E5E3DD"/>
</g>
</g>
</g>
<defs>
<clipPath id="clip0_702_30">
<rect width="214.667" height="28" fill="white" transform="translate(0 0.210938)"/>
</clipPath>
</defs>
</svg>
