<svg width="155" height="21" viewBox="0 0 155 21" fill="none" xmlns="http://www.w3.org/2000/svg">
<path fill-rule="evenodd" clip-rule="evenodd" d="M1.60471 5.10032C1.60471 4.12056 1.17408 3.82087 0.359375 3.60187V3.37134H8.4599C12.8593 3.37134 14.6517 4.81215 14.6517 6.64487C14.6517 8.43148 12.8244 9.90687 8.4599 9.90687H4.22342V13.7452C4.22342 14.6789 4.63077 14.967 5.46876 15.1976V15.405H0.359375V15.1976C1.17408 14.967 1.60471 14.6789 1.60471 13.7452V5.10032ZM5.01485 4.39719C4.53766 4.39719 4.22342 4.43178 4.22342 4.99658V8.85796H8.4599C10.9157 8.85796 11.6256 7.76294 11.6256 6.63334C11.6256 5.51527 10.8807 4.39719 8.4599 4.39719H5.01485Z" fill="#FDFCFA"/>
<path d="M39.5032 5.10032C39.5032 4.12056 39.0842 3.82087 38.2578 3.60187V3.37134H46.5213C50.5483 3.37134 52.5268 4.81215 52.5268 6.64487C52.5268 8.46606 50.7461 9.90687 47.2312 9.90687L51.91 13.9296C52.8644 14.748 53.5976 15.0477 54.0515 15.1976V15.405H50.1293L42.9133 9.15765V8.86948H46.3467C48.5231 8.86948 49.5357 7.93584 49.5357 6.63334C49.5357 5.34237 48.5231 4.43177 46.3467 4.43177H42.8667C42.4128 4.43177 42.1219 4.45483 42.1219 5.01963V13.7337C42.1219 14.6789 42.5292 14.967 43.3672 15.1976V15.405H38.2578V15.1976C39.0842 14.967 39.5032 14.6789 39.5032 13.7337V5.10032Z" fill="#FDFCFA"/>
<path d="M66.1394 15.1976V15.405H61.03V15.1976C61.8214 14.9901 62.3102 14.7134 62.3102 13.872V4.52399H58.3298C56.875 4.52399 56.3163 5.28474 55.9439 6.04549H55.7344L56.0719 3.37134H71.0974L71.435 6.04549H71.2255C70.853 5.28474 70.2944 4.52399 68.8395 4.52399H64.8591V13.872C64.8591 14.7134 65.3828 14.9901 66.1394 15.1976Z" fill="#FDFCFA"/>
<path d="M84.7593 5.34308C84.9921 4.29417 84.3054 4.08669 83.7118 3.87921V3.64868H87.6574L92.2197 12.0515L97.0148 3.64868H100.879V3.87921C100.192 4.08669 99.6219 4.3979 99.8314 5.29697L101.566 13.1696C101.915 14.7718 102.159 15.0599 103.009 15.3135V15.521H98.458V15.3135C99.0167 15.2328 99.2262 15.0484 99.2262 14.5182C99.2262 14.2646 99.1796 13.915 99.0865 13.4693L97.3524 5.68888L91.6727 15.6824H91.4399L86.0745 5.81567L84.3869 13.4808C84.3054 13.8151 84.2705 14.1032 84.2705 14.3222C84.2705 14.9793 84.5731 15.2098 85.1434 15.3135V15.521H81.5703V15.3135C82.0126 15.1752 82.5247 15.0254 82.8971 13.3886L84.7593 5.34308Z" fill="#FDFCFA"/>
<path fill-rule="evenodd" clip-rule="evenodd" d="M118.351 12.3512H110.122L109.145 13.9188C109.052 14.0725 109.005 14.2147 109.005 14.3453C109.005 14.887 109.738 15.1637 110.309 15.3251V15.5325H105.188V15.3251C105.769 15.1752 106.747 14.8755 107.899 13.1235L113.311 4.55928L113.265 4.47859C113.009 4.1328 112.275 3.92532 111.95 3.87921V3.64868H115.86L122.215 13.7344C122.902 14.8409 123.716 15.1637 124.263 15.3135V15.521H118.06V15.3135C118.665 15.1637 119.422 14.8064 119.422 14.2646C119.422 14.1148 119.375 13.9765 119.259 13.8151L118.351 12.3512ZM110.937 11.0718H117.571L114.277 5.72346L110.937 11.0718Z" fill="#FDFCFA"/>
<path d="M138.765 15.521H126.695V15.3135C127.429 15.106 127.929 14.8179 127.929 14.011V5.35461C127.929 4.38638 127.51 4.10974 126.695 3.87921V3.64868H131.735V3.87921C130.955 4.09822 130.501 4.42096 130.501 5.35461V13.9419C130.501 14.3914 130.699 14.5067 131.048 14.5067H136.751C137.752 14.5067 138.683 13.8612 139.219 12.8584H139.451L138.765 15.521Z" fill="#FDFCFA"/>
<path d="M153.952 15.521H141.883V15.3135C142.616 15.106 143.117 14.8179 143.117 14.011V5.35461C143.117 4.38638 142.698 4.10974 141.883 3.87921V3.64868H146.934V3.87921C146.143 4.09822 145.7 4.42096 145.7 5.35461V13.9419C145.7 14.3914 145.887 14.5067 146.236 14.5067H151.95C152.94 14.5067 153.871 13.8612 154.418 12.8584H154.639L153.952 15.521Z" fill="#FDFCFA"/>
<path fill-rule="evenodd" clip-rule="evenodd" d="M17.1406 9.56266C17.1406 5.60907 21.3771 3.20003 25.9744 3.08476C26.0054 2.68518 26.0403 2.26638 26.0791 1.82837H26.3585C26.3895 2.26638 26.4205 2.68518 26.4516 3.08476C30.979 3.11934 35.2853 5.2748 35.2853 9.2284C35.2853 13.1935 31.0139 15.568 26.4516 15.6948C26.4128 16.0867 26.3817 16.5055 26.3585 16.9512H26.0791C26.0481 16.5055 26.0132 16.0867 25.9744 15.6948C21.4586 15.6602 17.1406 13.401 17.1406 9.56266ZM26.568 4.1452C26.8007 6.04707 27.1615 7.52247 27.9413 9.2745C27.1965 11.0496 26.8124 12.4789 26.5563 14.6574C29.7919 14.5652 32.2593 12.548 32.2593 9.56266C32.2593 6.51966 30.0712 4.34115 26.568 4.1452ZM20.1667 9.2284C20.1667 12.3175 22.3431 14.4845 25.8696 14.6574C25.6136 12.4789 25.2295 11.0496 24.4846 9.2745C25.2644 7.52247 25.6252 6.04708 25.858 4.13367C22.5875 4.21436 20.1667 6.25456 20.1667 9.2284Z" fill="#FDFCFA"/>
</svg>
