<svg width="33" height="33" viewBox="0 0 33 33" fill="none" xmlns="http://www.w3.org/2000/svg">
<ellipse cx="17.1611" cy="23.7056" rx="8.68164" ry="2" fill="#494843"/>
<path d="M17.1616 6.34229C15.4354 6.34458 13.7806 7.03132 12.56 8.25192C11.3394 9.47251 10.6527 11.1273 10.6504 12.8535C10.6504 17.528 16.7167 23.3827 16.9744 23.6296C17.0246 23.6783 17.0917 23.7056 17.1616 23.7056C17.2315 23.7056 17.2987 23.6783 17.3488 23.6296C17.6066 23.3827 23.6728 17.528 23.6728 12.8535C23.6706 11.1273 22.9838 9.47251 21.7632 8.25192C20.5426 7.03132 18.8878 6.34458 17.1616 6.34229ZM17.1616 15.8378C16.5714 15.8378 15.9944 15.6628 15.5036 15.3349C15.0129 15.007 14.6303 14.5409 14.4045 13.9956C14.1786 13.4502 14.1195 12.8502 14.2346 12.2713C14.3498 11.6924 14.634 11.1606 15.0514 10.7433C15.4688 10.3259 16.0005 10.0417 16.5794 9.92654C17.1583 9.81139 17.7584 9.87049 18.3037 10.0964C18.849 10.3222 19.3151 10.7047 19.643 11.1955C19.9709 11.6863 20.1459 12.2633 20.1459 12.8535C20.1454 13.6448 19.8309 14.4036 19.2713 14.9632C18.7117 15.5227 17.953 15.8373 17.1616 15.8378Z" fill="#C6A687"/>
</svg>
