<svg width="34" height="35" viewBox="0 0 34 35" fill="none" xmlns="http://www.w3.org/2000/svg">
<rect y="0.210938" width="34" height="34" rx="17" fill="#C6A687"/>
<path d="M22.6379 13.7819L22.6389 16.4812C21.6997 16.5377 20.588 16.2508 19.7823 15.7257L19.7794 19.3403C19.7973 20.6995 19.3763 22.0411 18.3455 22.9288C17.6943 23.4898 16.8589 23.8076 15.9113 23.8214C13.1092 23.8612 11.2669 21.344 11.8617 18.5666C12.3889 16.1084 14.2715 14.9373 16.647 15.3293C16.647 16.2941 16.6484 17.2584 16.6484 18.2227C15.6947 18.0763 14.6277 18.1249 14.451 19.3805C14.3232 20.2888 14.8344 21.0228 15.7501 21.0375C16.8486 21.0557 17.1944 20.1921 17.1944 19.215V10.5996L19.7851 10.6134C19.7921 12.6496 20.7224 13.663 22.6379 13.7819Z" fill="#1E1E21"/>
</svg>
